<?xml version="1.0" encoding="UTF-8"?>
<!DOCTYPE svg PUBLIC "-//W3C//DTD SVG 1.1//EN" "http://www.w3.org/Graphics/SVG/1.1/DTD/svg11.dtd">
<!-- Creator: CorelDRAW X7 -->
<svg xmlns="http://www.w3.org/2000/svg" xml:space="preserve" width="210mm" height="297mm" version="1.1" style="shape-rendering:geometricPrecision; text-rendering:geometricPrecision; image-rendering:optimizeQuality; fill-rule:evenodd; clip-rule:evenodd"
viewBox="0 0 21000 29700"
 xmlns:xlink="http://www.w3.org/1999/xlink">
 <defs>
  <style type="text/css">
   <![CDATA[
    .fil3 {fill:#FEFEFE}
    .fil2 {fill:#718FC8}
    .fil1 {fill:#04BBFF}
    .fil0 {fill:#8B00F6}
   ]]>
  </style>
 </defs>
 <g id="Capa_x0020_1">
  <metadata id="CorelCorpID_0Corel-Layer"/>
  <g id="_1214079669312">
   <polygon class="fil0" points="3239,14433 17761,14433 17761,16179 3239,16179 "/>
   <path class="fil1" d="M8242 9848l2166 1251 1227 708c515,309 827,779 939,1374l0 1669 0 1659c-112,597 -421,1073 -937,1382l-1229 710 -1393 805c-511,242 -1024,243 -1535,6l762 440 -2166 -1251 -1236 -713 1 0c-515,-309 -819,-782 -930,-1378l0 -1660 0 -1668c111,-596 440,-1076 956,-1385l1209 -698 1409 -814 -37 22c511,-238 1083,-239 1594,3l-800 -462zm4332 7503l-937 540 0 0 937 -540z"/>
   <path class="fil2" d="M11577 18745l60 -34c-19,11 -39,23 -60,34z"/>
   <path class="fil2" d="M4841 18707l61 35c-21,-11 -41,-23 -61,-35z"/>
   <path class="fil2" d="M11577 18746l0 -1c0,0 0,1 0,1z"/>
   <path class="fil3" d="M12400 12626l-63 -36c21,12 42,24 63,36z"/>
   <path class="fil3" d="M5694 12580l-62 36c20,-12 41,-24 62,-36z"/>
   <path class="fil3" d="M3455 13647l0 -1236 353 0c137,0 234,7 288,19 54,13 101,34 140,64 45,34 79,77 103,129 24,53 35,110 35,173 0,96 -23,174 -70,234 -47,59 -116,99 -206,119l337 498 -380 0 -284 -484 0 484 -316 0zm316 -651l63 0c72,0 125,-13 159,-38 33,-24 50,-63 50,-116 0,-62 -16,-106 -47,-132 -31,-26 -83,-39 -157,-39l-68 0 0 325zm2061 36c0,89 -17,172 -49,250 -33,77 -80,147 -143,208 -63,61 -135,107 -216,141 -81,32 -165,49 -252,49 -88,0 -173,-17 -254,-49 -80,-34 -151,-80 -213,-141 -63,-61 -111,-131 -144,-209 -33,-78 -50,-161 -50,-249 0,-89 17,-172 50,-250 33,-77 81,-147 144,-208 62,-61 133,-108 213,-141 81,-33 166,-49 254,-49 88,0 172,16 253,49 82,33 153,80 215,141 62,60 109,130 142,208 33,78 50,161 50,250zm-661 363c94,0 171,-35 232,-103 61,-69 92,-156 92,-260 0,-104 -31,-190 -93,-259 -62,-70 -139,-104 -231,-104 -93,0 -170,34 -231,103 -61,69 -92,156 -92,260 0,106 30,192 90,260 61,69 138,103 233,103zm926 -147c51,57 100,99 149,127 48,28 97,42 145,42 45,0 82,-12 111,-36 29,-24 43,-55 43,-92 0,-41 -12,-73 -37,-95 -25,-22 -82,-45 -170,-69 -121,-32 -207,-75 -257,-127 -50,-52 -75,-124 -75,-215 0,-118 40,-215 119,-289 79,-75 182,-112 307,-112 69,0 133,9 194,27 61,19 119,46 174,84l-106 242c-38,-33 -77,-57 -118,-74 -40,-17 -79,-25 -119,-25 -40,0 -73,10 -98,29 -26,19 -38,45 -38,75 0,31 11,55 33,74 22,18 65,36 128,53l16 4c137,38 227,78 271,123 29,30 51,67 66,109 16,43 23,90 23,141 0,131 -43,237 -129,316 -86,80 -201,120 -344,120 -87,0 -165,-15 -236,-44 -70,-29 -138,-75 -203,-138l151 -250zm1276 -62l335 0 -125 -408c-4,-13 -10,-32 -16,-60 -7,-28 -16,-63 -27,-106 -7,30 -14,59 -21,87 -7,27 -14,53 -21,79l-125 408zm-472 461l427 -1236 422 0 427 1236 -335 0 -63 -221 -478 0 -64 221 -336 0zm1394 0l0 -1236 352 0c138,0 234,7 288,19 54,13 101,34 141,64 44,34 78,77 102,129 24,53 36,110 36,173 0,96 -24,174 -71,234 -47,59 -115,99 -206,119l337 498 -380 0 -283 -484 0 484 -316 0zm316 -651l62 0c73,0 126,-13 159,-38 33,-24 50,-63 50,-116 0,-62 -15,-106 -47,-132 -31,-26 -83,-39 -157,-39l-67 0 0 325zm800 651l0 -1236 341 0 0 1236 -341 0zm1880 -615c0,89 -16,172 -49,250 -32,77 -80,147 -142,208 -64,61 -136,107 -216,141 -81,32 -165,49 -252,49 -89,0 -174,-17 -254,-49 -81,-34 -152,-80 -213,-141 -64,-61 -112,-131 -145,-209 -33,-78 -49,-161 -49,-249 0,-89 16,-172 49,-250 33,-77 81,-147 145,-208 61,-61 132,-108 213,-141 80,-33 165,-49 254,-49 87,0 172,16 253,49 81,33 153,80 215,141 61,60 109,130 142,208 33,78 49,161 49,250zm-660 363c93,0 170,-35 232,-103 61,-69 91,-156 91,-260 0,-104 -31,-190 -93,-259 -62,-70 -138,-104 -230,-104 -93,0 -171,34 -232,103 -61,69 -91,156 -91,260 0,106 30,192 90,260 60,69 138,103 233,103z"/>
   <path class="fil3" d="M7830 12071l0 -1236 352 0c138,0 234,7 288,19 54,13 101,34 141,64 44,34 78,77 102,129 24,52 36,110 36,173 0,96 -24,173 -71,233 -47,60 -115,100 -206,120l337 498 -380 0 -283 -484 0 484 -316 0zm316 -652l62 0c73,0 126,-12 159,-37 33,-25 50,-63 50,-116 0,-62 -15,-106 -47,-132 -31,-27 -83,-39 -157,-39l-67 0 0 324zm792 652l0 -1236 757 0 0 272 -429 0 0 214 404 0 0 264 -404 0 0 209 429 0 0 277 -757 0zm1306 -461l335 0 -126 -408c-4,-13 -9,-33 -16,-60 -7,-28 -15,-63 -26,-107 -7,31 -14,60 -21,87 -7,28 -15,54 -22,80l-124 408zm-472 461l427 -1236 422 0 426 1236 -335 0 -62 -221 -479 0 -64 221 -335 0zm2258 -1187l0 368c-46,-51 -92,-89 -138,-113 -46,-24 -95,-36 -147,-36 -97,0 -175,33 -235,99 -60,66 -90,152 -90,259 0,99 31,181 92,246 61,65 138,98 233,98 52,0 101,-12 147,-36 46,-24 92,-61 138,-113l0 368c-53,26 -106,46 -159,59 -53,13 -106,19 -161,19 -67,0 -129,-8 -186,-24 -57,-16 -110,-40 -157,-73 -93,-62 -163,-140 -211,-234 -49,-94 -73,-200 -73,-317 0,-95 15,-180 46,-258 31,-77 77,-147 139,-210 58,-61 124,-105 198,-135 73,-30 155,-45 244,-45 55,0 108,6 161,19 53,13 106,33 159,59zm368 1187l0 -944 -276 0 0 -292 890 0 0 292 -277 0 0 944 -337 0z"/>
   <path class="fil0" d="M5405 18499l5674 0c133,0 242,108 242,241l0 681c0,133 -109,242 -242,242l-5674 0c-132,0 -241,-109 -241,-242l0 -681c0,-133 109,-241 241,-241z"/>
   <path class="fil3" d="M4325 14098l157 0 0 375c0,41 -3,72 -8,94 -6,22 -14,41 -26,58 -16,22 -36,38 -59,49 -24,11 -50,17 -79,17 -37,0 -69,-8 -97,-23 -29,-16 -53,-39 -73,-69l96 -87c2,17 8,30 17,39 8,9 19,14 32,14 15,0 26,-8 31,-25 6,-17 9,-58 9,-124l0 -318zm270 0l157 0 0 281c0,41 1,71 3,89 2,18 5,33 10,45 6,15 17,26 32,34 15,8 33,11 55,11 21,0 40,-3 54,-11 15,-8 26,-19 32,-34 5,-12 9,-27 11,-45 2,-18 3,-48 3,-89l0 -40 0 -241 157 0 0 305c0,64 -4,110 -12,141 -7,30 -20,55 -38,77 -20,23 -47,41 -82,52 -34,12 -76,18 -125,18 -49,0 -91,-6 -126,-18 -34,-11 -61,-29 -81,-52 -18,-22 -31,-47 -39,-77 -7,-31 -11,-77 -11,-141l0 -60 0 -245zm633 578l0 -578 354 0 0 127 -200 0 0 100 189 0 0 124 -189 0 0 97 200 0 0 130 -354 0zm1107 0l-442 0 260 -307c15,-19 27,-36 34,-51 8,-15 12,-29 12,-42 0,-21 -7,-37 -20,-50 -12,-13 -29,-19 -50,-19 -25,0 -44,8 -57,24 -13,15 -20,38 -20,68l0 7 -139 0 0 -4c0,-65 19,-117 58,-154 38,-38 90,-57 157,-57 64,0 116,17 154,50 39,34 58,78 58,134 0,27 -6,53 -18,79 -12,25 -32,53 -60,84l-104 115 177 0 0 123zm125 0l217 -443 -244 0 0 -130 441 0 0 28 -251 545 -163 0zm856 -578l157 0 0 375c0,41 -3,72 -8,94 -5,22 -14,41 -26,58 -16,22 -36,38 -59,49 -24,11 -50,17 -79,17 -36,0 -69,-8 -97,-23 -28,-16 -53,-39 -73,-69l96 -87c3,17 8,30 17,39 9,9 20,14 33,14 15,0 25,-8 31,-25 5,-17 8,-58 8,-124l0 -318zm270 0l157 0 0 281c0,41 1,71 3,89 2,18 6,33 11,45 6,15 16,26 31,34 15,8 34,11 55,11 22,0 40,-3 55,-11 15,-8 25,-19 31,-34 6,-12 9,-27 11,-45 2,-18 3,-48 3,-89l0 -40 0 -241 157 0 0 305c0,64 -4,110 -11,141 -8,30 -21,55 -39,77 -20,23 -47,41 -81,52 -35,12 -76,18 -126,18 -49,0 -91,-6 -125,-18 -35,-11 -62,-29 -82,-52 -18,-22 -30,-47 -38,-77 -8,-31 -12,-77 -12,-141l0 -60 0 -245zm634 578l0 -578 151 0 219 297c4,6 11,18 21,37 9,18 20,40 31,65 -3,-24 -5,-45 -7,-64 -1,-19 -2,-35 -2,-50l0 -285 151 0 0 578 -151 0 -218 -299c-5,-6 -12,-18 -21,-36 -10,-19 -20,-40 -32,-65 4,24 6,46 7,65 2,18 2,35 2,49l0 286 -151 0zm692 0l0 -578 159 0 0 578 -159 0zm879 -288c0,42 -8,80 -23,117 -15,36 -37,69 -66,97 -30,29 -64,50 -101,66 -38,15 -78,23 -118,23 -42,0 -81,-8 -119,-23 -38,-16 -71,-37 -99,-66 -30,-28 -53,-61 -68,-98 -16,-36 -23,-75 -23,-116 0,-41 7,-80 23,-117 15,-36 38,-69 68,-97 28,-29 61,-51 99,-66 38,-15 77,-23 119,-23 41,0 80,8 118,23 38,15 72,37 101,66 29,28 51,61 66,97 15,37 23,76 23,117zm-309 170c44,0 80,-16 109,-48 28,-33 43,-73 43,-122 0,-48 -15,-89 -44,-121 -29,-33 -65,-49 -108,-49 -43,0 -79,16 -108,49 -28,32 -43,72 -43,121 0,49 14,90 42,122 29,32 65,48 109,48zm793 118l0 -442 -124 0 68 -131 200 0 0 573 -144 0zm563 -356c21,0 38,-6 51,-18 12,-12 18,-28 18,-48 0,-21 -6,-37 -18,-48 -12,-12 -29,-18 -51,-18 -21,0 -37,6 -49,18 -12,12 -18,28 -18,48 0,20 6,36 18,48 12,12 29,18 49,18zm0 255c25,0 45,-6 59,-20 14,-14 21,-33 21,-57 0,-23 -7,-42 -21,-55 -14,-14 -34,-20 -59,-20 -24,0 -43,6 -57,20 -15,13 -22,32 -22,55 0,24 7,43 22,57 14,14 33,20 57,20zm102 -208c38,7 67,23 88,49 21,27 31,60 31,101 0,54 -19,97 -58,128 -39,31 -93,46 -163,46 -69,0 -123,-15 -161,-46 -39,-31 -58,-74 -58,-128 0,-41 10,-74 31,-101 21,-26 50,-42 88,-49 -31,-7 -54,-21 -71,-42 -17,-21 -25,-46 -25,-77 0,-49 17,-87 52,-115 35,-27 83,-41 144,-41 63,0 111,14 146,42 34,27 52,65 52,114 0,31 -9,56 -25,77 -17,21 -40,35 -71,42zm210 -7c0,-22 8,-41 23,-56 15,-15 34,-23 56,-23 23,0 42,8 58,23 15,15 23,34 23,56 0,23 -8,42 -24,57 -15,16 -34,23 -57,23 -22,0 -40,-7 -56,-23 -15,-15 -23,-34 -23,-57zm0 251c0,-22 8,-41 23,-56 15,-16 34,-23 56,-23 23,0 42,7 58,23 15,15 23,34 23,56 0,22 -8,41 -24,57 -15,15 -34,23 -57,23 -22,0 -40,-8 -56,-23 -15,-16 -23,-35 -23,-57zm252 -127l146 0 0 10c0,25 6,44 18,57 11,13 29,20 52,20 24,0 43,-7 56,-19 13,-13 19,-31 19,-54 0,-27 -7,-47 -20,-59 -14,-13 -36,-19 -65,-19 -5,0 -9,0 -11,0 -3,1 -5,1 -7,1l0 -93 8 0c27,0 47,-6 61,-17 14,-12 21,-29 21,-51 0,-18 -6,-32 -18,-43 -12,-11 -27,-17 -46,-17 -20,0 -35,6 -46,17 -11,11 -17,26 -17,46l-140 0c1,-54 20,-96 57,-126 36,-30 88,-45 154,-45 59,0 105,13 139,40 34,27 51,63 51,109 0,29 -8,54 -24,74 -15,21 -38,35 -68,45 36,6 64,22 84,47 20,25 30,56 30,95 0,56 -20,102 -60,136 -39,35 -91,53 -155,53 -68,0 -121,-18 -160,-54 -40,-37 -59,-86 -59,-147l0 -6zm943 -87c0,91 -20,163 -59,215 -38,53 -92,79 -160,79 -67,0 -121,-27 -160,-80 -39,-53 -59,-127 -59,-220 0,-93 20,-166 59,-219 39,-53 93,-80 160,-80 69,0 123,27 161,80 38,53 58,128 58,225zm-292 -6c0,63 6,109 17,138 12,29 31,44 56,44 25,0 44,-15 55,-44 12,-29 18,-75 18,-138 0,-62 -6,-108 -18,-137 -11,-30 -30,-45 -55,-45 -25,0 -44,15 -56,44 -11,28 -17,75 -17,138z"/>
   <path class="fil3" d="M6209 15036l0 157c-20,-22 -39,-38 -59,-48 -19,-10 -40,-16 -62,-16 -41,0 -74,15 -100,43 -25,27 -38,64 -38,109 0,42 13,77 39,105 26,27 59,41 99,41 22,0 43,-5 62,-15 20,-10 39,-26 59,-48l0 156c-23,11 -45,20 -68,25 -22,6 -45,8 -68,8 -28,0 -55,-3 -79,-10 -24,-7 -46,-17 -67,-31 -39,-26 -69,-59 -89,-99 -21,-40 -31,-85 -31,-135 0,-40 7,-76 20,-109 13,-33 32,-63 58,-89 25,-26 53,-45 84,-58 32,-12 66,-19 104,-19 23,0 46,3 68,9 23,5 45,13 68,24zm619 243c0,38 -7,73 -21,106 -14,33 -34,62 -60,89 -27,25 -58,45 -92,59 -34,14 -70,21 -107,21 -38,0 -73,-7 -108,-21 -34,-14 -64,-34 -90,-59 -27,-27 -47,-56 -61,-89 -14,-33 -21,-69 -21,-106 0,-37 7,-73 21,-106 14,-33 34,-62 61,-88 26,-26 56,-46 90,-60 35,-14 70,-21 108,-21 37,0 73,7 108,21 34,14 64,34 91,60 26,25 46,55 60,88 14,33 21,69 21,106zm-280 154c39,0 72,-14 98,-44 26,-29 39,-66 39,-110 0,-44 -13,-80 -39,-110 -27,-29 -59,-44 -98,-44 -40,0 -73,15 -99,44 -25,29 -38,66 -38,110 0,45 12,82 38,111 25,29 58,43 99,43zm726 -417l66 249c3,11 6,23 9,35 3,12 5,26 8,42 4,-19 7,-34 9,-46 3,-12 5,-22 8,-31l61 -249 145 0 -149 524 -132 0 -65 -224c-2,-8 -6,-23 -12,-46 -2,-10 -4,-18 -6,-24 -1,5 -2,12 -5,21 -5,23 -9,40 -12,49l-64 224 -133 0 -148 -524 145 0 60 250c3,13 6,26 8,39 3,13 6,26 8,40 2,-10 5,-21 7,-32 3,-11 6,-26 11,-47l66 -250 115 0zm893 263c0,38 -7,73 -21,106 -14,33 -34,62 -60,89 -27,25 -58,45 -92,59 -34,14 -70,21 -107,21 -37,0 -73,-7 -108,-21 -34,-14 -64,-34 -90,-59 -27,-27 -47,-56 -61,-89 -14,-33 -21,-69 -21,-106 0,-37 7,-73 21,-106 14,-33 34,-62 61,-88 26,-26 56,-46 90,-60 35,-14 71,-21 108,-21 37,0 73,7 108,21 34,14 64,34 91,60 26,25 46,55 60,88 14,33 21,69 21,106zm-280 154c39,0 72,-14 98,-44 26,-29 39,-66 39,-110 0,-44 -13,-80 -39,-110 -27,-29 -59,-44 -98,-44 -40,0 -72,15 -98,44 -26,29 -39,66 -39,110 0,45 12,82 38,111 26,29 59,43 99,43zm369 107l0 -524 150 0c58,0 99,2 122,8 23,5 43,14 60,27 19,14 33,33 43,55 11,22 16,46 16,73 0,41 -10,74 -30,99 -20,26 -50,42 -88,51l143 211 -161 0 -120 -205 0 205 -135 0zm135 -276l26 0c31,0 53,-6 68,-16 14,-11 21,-27 21,-49 0,-27 -7,-45 -20,-57 -13,-11 -35,-16 -67,-16l-28 0 0 138zm336 276l0 -524 141 0 0 238 166 -238 166 0 -193 255 210 269 -178 0 -171 -235 0 235 -141 0zm535 0l0 -524 145 0 0 524 -145 0zm260 0l0 -524 137 0 199 269c3,6 10,17 18,34 9,16 19,36 29,59 -3,-22 -5,-41 -6,-58 -1,-17 -2,-32 -2,-45l0 -259 137 0 0 524 -137 0 -198 -271c-4,-5 -11,-16 -19,-33 -9,-16 -19,-36 -29,-58 3,22 5,41 6,58 2,17 2,32 2,45l0 259 -137 0zm874 -193l0 -110 280 0c1,4 1,8 1,12 0,4 0,11 0,19 0,90 -24,160 -71,210 -48,50 -115,75 -201,75 -43,0 -81,-7 -114,-20 -33,-12 -62,-32 -88,-58 -25,-25 -44,-55 -58,-89 -14,-34 -21,-70 -21,-108 0,-39 7,-75 20,-108 14,-32 34,-62 60,-88 26,-26 57,-45 91,-58 34,-13 70,-20 110,-20 51,0 96,10 136,31 39,20 73,50 100,90l-124 59c-15,-20 -32,-35 -50,-45 -19,-10 -39,-15 -62,-15 -43,0 -77,15 -102,43 -24,29 -36,68 -36,117 0,50 12,89 36,118 25,28 59,43 102,43 36,0 66,-9 90,-27 25,-18 39,-41 43,-71l-142 0z"/>
   <path class="fil3" d="M4294 16729l0 -857 234 0 0 657 290 0 0 200 -524 0zm864 -320l232 0 -87 -283c-2,-8 -6,-22 -11,-41 -5,-19 -11,-44 -18,-74 -5,21 -10,41 -15,60 -5,19 -10,38 -15,55l-86 283zm-327 320l296 -857 292 0 296 857 -232 0 -43 -154 -332 0 -45 154 -232 0zm1379 -277c34,39 68,69 102,88 34,20 68,29 101,29 31,0 57,-8 77,-25 20,-16 30,-38 30,-63 0,-29 -9,-51 -26,-66 -17,-15 -56,-31 -117,-48 -84,-22 -144,-52 -179,-88 -34,-36 -52,-86 -52,-149 0,-82 28,-149 83,-201 54,-51 126,-77 213,-77 47,0 92,6 134,19 42,13 83,32 120,58l-73 167c-26,-22 -53,-39 -81,-51 -28,-11 -56,-17 -83,-17 -28,0 -51,7 -68,20 -18,14 -27,31 -27,52 0,21 8,38 23,51 16,13 45,26 89,37l11 3c95,26 158,54 188,85 20,21 35,46 46,76 11,29 16,62 16,98 0,90 -30,164 -90,219 -59,55 -139,82 -238,82 -60,0 -114,-10 -163,-30 -49,-20 -96,-52 -142,-95l106 -174zm657 277l0 -857 525 0 0 188 -297 0 0 149 280 0 0 183 -280 0 0 145 297 0 0 192 -525 0zm1086 -315l0 -180 459 0c1,6 1,12 1,19 0,7 0,18 0,31 0,148 -39,262 -116,343 -78,81 -188,122 -329,122 -69,0 -131,-10 -185,-31 -54,-21 -102,-53 -145,-96 -40,-41 -72,-89 -94,-145 -22,-56 -34,-115 -34,-176 0,-64 11,-123 33,-176 22,-54 55,-102 98,-145 43,-42 92,-73 147,-95 56,-21 116,-32 180,-32 84,0 158,17 223,50 64,33 119,82 163,148l-203 97c-24,-33 -51,-58 -81,-74 -31,-16 -64,-24 -102,-24 -70,0 -125,23 -165,69 -40,47 -60,111 -60,192 0,81 20,145 60,192 40,47 95,70 165,70 59,0 109,-15 148,-43 40,-29 63,-68 70,-116l-233 0zm598 -542l232 0 0 417c0,61 2,105 5,132 3,26 8,49 16,67 9,22 24,38 47,50 22,11 49,17 81,17 32,0 59,-6 81,-17 22,-12 38,-28 47,-50 7,-18 13,-41 16,-67 3,-27 4,-71 4,-132l0 -59 0 -358 233 0 0 453c0,94 -6,163 -17,208 -12,45 -31,83 -58,114 -29,35 -69,61 -120,79 -51,17 -113,25 -186,25 -73,0 -135,-8 -186,-25 -51,-18 -91,-44 -121,-79 -26,-31 -45,-69 -57,-114 -11,-45 -17,-114 -17,-208l0 -89 0 -364zm939 857l0 -857 225 0 324 441c6,9 16,27 30,54 15,27 30,59 47,97 -4,-36 -8,-67 -10,-95 -2,-28 -3,-52 -3,-74l0 -423 224 0 0 857 -224 0 -324 -442c-6,-9 -17,-28 -31,-55 -14,-27 -30,-59 -46,-95 4,36 8,67 10,95 2,28 3,52 3,74l0 423 -225 0zm1020 0l0 -857 179 0c133,0 227,7 282,19 55,13 103,33 145,63 54,38 95,86 123,145 29,59 42,126 42,202 0,76 -13,143 -42,202 -28,59 -69,108 -123,146 -41,28 -88,49 -142,61 -52,13 -135,19 -246,19l-39 0 -179 0zm231 -192l39 0c92,0 159,-19 201,-56 42,-38 63,-98 63,-180 0,-81 -21,-141 -63,-180 -42,-38 -109,-57 -201,-57l-39 0 0 473zm892 -128l233 0 -88 -283c-2,-8 -6,-22 -11,-41 -4,-19 -10,-44 -18,-74 -5,21 -10,41 -15,60 -5,19 -10,38 -15,55l-86 283zm-327 320l296 -857 292 0 296 857 -232 0 -43 -154 -332 0 -44 154 -233 0z"/>
   <g>
    <path class="fil3" d="M12676 15101c13,15 26,26 38,33 13,7 25,11 38,11 11,0 21,-3 28,-9 8,-7 12,-15 12,-24 0,-11 -4,-19 -10,-25 -7,-5 -21,-11 -44,-17 -31,-9 -53,-20 -66,-33 -13,-13 -19,-32 -19,-55 0,-31 10,-56 30,-75 21,-19 47,-29 79,-29 18,0 35,3 50,8 16,4 31,11 45,21l-27 62c-10,-8 -20,-14 -30,-19 -11,-4 -21,-6 -31,-6 -11,0 -19,2 -26,7 -6,5 -9,12 -9,20 0,7 3,14 8,19 6,4 17,9 33,13l4 1c36,10 59,20 70,32 8,8 13,17 17,28 4,11 6,23 6,36 0,34 -11,61 -33,82 -22,20 -52,30 -89,30 -22,0 -42,-3 -60,-11 -19,-7 -36,-19 -53,-35l39 -65zm290 103l0 -243 -71 0 0 -75 229 0 0 75 -71 0 0 243 -87 0zm257 0l0 -145 -111 -173 99 0 43 82c0,0 1,1 1,2 5,9 8,17 10,25 1,-7 4,-15 9,-24 1,-1 1,-2 2,-3l42 -82 100 0 -111 173 0 145 -84 0zm209 0l0 -318 87 0 0 244 107 0 0 74 -194 0zm237 0l0 -318 195 0 0 70 -111 0 0 55 104 0 0 68 -104 0 0 54 111 0 0 71 -195 0zm252 0l0 -318 66 0c49,0 84,2 105,7 20,5 38,12 54,23 20,14 35,32 46,54 10,22 15,47 15,75 0,28 -5,53 -15,75 -11,22 -26,40 -46,54 -16,11 -33,19 -53,23 -19,5 -50,7 -91,7l-15 0 -66 0zm86 -71l14 0c34,0 59,-7 75,-21 15,-14 23,-36 23,-67 0,-30 -8,-52 -23,-67 -16,-14 -41,-21 -75,-21l-14 0 0 176zm262 -3l0 -71 148 0 0 71 -148 0zm448 -232l0 95c-12,-13 -24,-23 -35,-29 -12,-6 -25,-9 -38,-9 -25,0 -45,8 -61,25 -15,17 -23,40 -23,67 0,25 8,47 24,63 15,17 35,26 60,26 13,0 26,-4 38,-10 11,-6 23,-15 35,-29l0 95c-14,7 -27,12 -41,15 -14,3 -27,5 -41,5 -18,0 -34,-2 -48,-6 -15,-4 -28,-11 -41,-19 -23,-16 -42,-36 -54,-60 -12,-24 -19,-52 -19,-82 0,-24 4,-46 12,-66 8,-20 20,-38 36,-54 15,-16 32,-27 51,-35 19,-8 40,-12 63,-12 14,0 27,2 41,5 14,4 27,9 41,15zm375 148c0,23 -4,44 -12,64 -9,20 -21,38 -37,54 -16,15 -35,27 -56,36 -20,8 -42,12 -64,12 -23,0 -45,-4 -66,-12 -20,-9 -39,-21 -54,-36 -17,-16 -29,-34 -38,-54 -8,-20 -12,-42 -12,-64 0,-23 4,-44 12,-64 9,-21 21,-38 38,-54 15,-16 34,-28 54,-36 21,-9 43,-13 66,-13 22,0 44,4 65,13 21,8 39,20 55,36 16,15 28,33 37,53 8,21 12,42 12,65zm-170 93c24,0 44,-9 60,-26 16,-18 24,-40 24,-67 0,-27 -8,-49 -24,-67 -16,-18 -36,-27 -60,-27 -24,0 -43,9 -59,27 -16,18 -24,40 -24,67 0,27 8,49 24,67 15,17 35,26 59,26zm589 65l-81 0 -18 -137c-2,-10 -3,-21 -4,-33 -1,-12 -2,-25 -3,-39 -2,14 -6,31 -12,51 -1,4 -2,7 -3,9l-43 149 -58 0 -43 -149c0,-2 -1,-5 -2,-9 -7,-20 -10,-37 -12,-50 -1,12 -2,23 -3,35 -2,12 -3,24 -4,36l-19 137 -81 0 49 -318 86 0 48 164c0,1 1,3 2,6 4,14 7,27 8,37 1,-5 2,-12 4,-19 1,-6 3,-15 6,-24l48 -164 86 0 49 318zm128 0l-81 0 0 -318 91 0c35,0 60,2 74,5 15,4 27,10 37,18 12,10 20,22 27,36 6,15 9,31 9,49 0,19 -3,36 -9,50 -6,14 -15,26 -27,35 -9,7 -20,12 -32,15 -12,4 -32,5 -58,5l-15 0 -16 0 0 105zm0 -175l17 0c21,0 35,-3 43,-8 9,-6 13,-16 13,-30 0,-13 -4,-22 -12,-28 -8,-6 -23,-8 -43,-8l-18 0 0 74zm527 17c0,23 -4,44 -12,64 -9,20 -21,38 -37,54 -16,15 -35,27 -56,36 -21,8 -42,12 -65,12 -22,0 -44,-4 -65,-12 -21,-9 -39,-21 -55,-36 -16,-16 -28,-34 -37,-54 -8,-20 -13,-42 -13,-64 0,-23 5,-44 13,-64 9,-21 21,-38 37,-54 16,-16 34,-28 55,-36 21,-9 43,-13 65,-13 23,0 45,4 66,13 21,8 39,20 55,36 16,15 28,33 37,53 8,21 12,42 12,65zm-170 93c24,0 44,-9 60,-26 16,-18 23,-40 23,-67 0,-27 -7,-49 -23,-67 -16,-18 -36,-27 -60,-27 -24,0 -44,9 -59,27 -16,18 -24,40 -24,67 0,27 8,49 23,67 16,17 36,26 60,26zm224 65l0 -318 84 0 120 164c3,3 6,10 12,20 5,10 11,22 17,36 -2,-14 -3,-25 -4,-36 0,-10 -1,-19 -1,-27l0 -157 83 0 0 318 -83 0 -120 -164c-3,-3 -6,-10 -12,-20 -5,-10 -11,-22 -17,-36 2,14 3,25 4,36 1,10 1,19 1,27l0 157 -84 0zm379 0l0 -318 195 0 0 70 -110 0 0 55 104 0 0 68 -104 0 0 54 110 0 0 71 -195 0zm252 0l0 -318 84 0 120 164c3,3 6,10 12,20 5,10 11,22 17,36 -2,-14 -3,-25 -4,-36 0,-10 -1,-19 -1,-27l0 -157 83 0 0 318 -83 0 -120 -164c-3,-3 -6,-10 -12,-20 -5,-10 -11,-22 -17,-36 2,14 3,25 4,36 1,10 1,19 1,27l0 157 -84 0zm425 0l0 -243 -71 0 0 -75 229 0 0 75 -71 0 0 243 -87 0zm214 -103c13,15 26,26 39,33 12,7 25,11 37,11 12,0 21,-3 29,-9 7,-7 11,-15 11,-24 0,-11 -3,-19 -10,-25 -6,-5 -21,-11 -44,-17 -31,-9 -53,-20 -66,-33 -13,-13 -19,-32 -19,-55 0,-31 10,-56 31,-75 20,-19 46,-29 79,-29 17,0 34,3 50,8 15,4 30,11 44,21l-27 62c-10,-8 -20,-14 -30,-19 -11,-4 -21,-6 -31,-6 -10,0 -19,2 -25,7 -7,5 -10,12 -10,20 0,7 3,14 8,19 6,4 17,9 34,13l3 1c36,10 59,20 70,32 8,8 13,17 17,28 4,11 6,23 6,36 0,34 -11,61 -33,82 -22,20 -52,30 -89,30 -22,0 -42,-3 -60,-11 -18,-7 -36,-19 -53,-35l39 -65z"/>
    <path class="fil3" d="M12813 15655l0 -67 171 0c0,2 0,4 0,7 0,3 0,6 0,11 0,55 -14,98 -43,128 -29,30 -70,45 -122,45 -26,0 -49,-4 -69,-12 -20,-7 -38,-19 -54,-35 -15,-15 -26,-33 -35,-54 -8,-21 -12,-43 -12,-65 0,-24 4,-46 12,-66 8,-20 20,-38 36,-53 16,-16 34,-28 55,-36 21,-8 43,-12 67,-12 31,0 59,7 82,19 24,12 45,30 61,55l-75 36c-9,-13 -19,-22 -31,-28 -11,-6 -23,-9 -37,-9 -26,0 -47,9 -62,26 -14,18 -22,41 -22,71 0,30 8,54 22,72 15,17 36,26 62,26 22,0 40,-6 55,-17 15,-10 23,-25 26,-42l-87 0zm224 116l0 -318 91 0c35,0 60,2 74,5 14,4 26,9 36,17 11,8 20,20 26,33 6,13 10,28 10,45 0,24 -7,44 -19,60 -12,15 -29,25 -53,30l87 128 -98 0 -73 -124 0 124 -81 0zm81 -167l16 0c19,0 33,-3 41,-10 9,-6 13,-16 13,-30 0,-16 -4,-27 -12,-34 -8,-6 -21,-10 -40,-10l-18 0 0 84zm288 49l86 0 -32 -105c-1,-3 -2,-9 -4,-16 -2,-7 -4,-16 -7,-27 -2,8 -4,15 -5,22 -2,7 -4,14 -6,21l-32 105zm-121 118l109 -318 109 0 110 318 -86 0 -16 -56 -123 0 -17 56 -86 0zm440 0l-82 0 0 -318 91 0c35,0 60,2 75,6 14,3 26,9 36,17 12,10 21,22 27,37 6,14 9,31 9,48 0,19 -3,36 -9,50 -6,15 -15,27 -27,36 -9,7 -19,12 -32,15 -12,3 -31,5 -58,5l-15 0 -15 0 0 104zm0 -174l16 0c21,0 36,-3 44,-9 8,-6 12,-15 12,-29 0,-13 -4,-23 -12,-29 -8,-5 -23,-8 -43,-8l-17 0 0 75zm200 174l0 -318 87 0 0 124 115 0 0 -124 87 0 0 318 -87 0 0 -129 -115 0 0 129 -87 0zm566 -126l16 22c5,-8 8,-16 11,-24 2,-9 3,-18 3,-28 0,-28 -7,-51 -23,-69 -16,-18 -36,-27 -60,-27 -23,0 -43,9 -59,27 -16,18 -24,41 -24,67 0,27 8,50 24,68 16,18 36,26 60,26 3,0 6,0 10,-1 4,-1 7,-2 11,-3l-45 -58 76 0zm124 164l-74 0 -34 -45c-9,5 -19,9 -31,11 -11,3 -23,4 -36,4 -19,0 -36,-2 -52,-7 -17,-5 -32,-12 -47,-21 -22,-16 -40,-35 -53,-60 -13,-24 -20,-50 -20,-78 0,-23 5,-44 13,-64 9,-21 21,-38 37,-54 16,-16 34,-28 55,-36 21,-8 42,-13 65,-13 23,0 45,5 65,13 21,8 39,20 55,36 16,16 29,33 37,54 9,20 13,41 13,64 0,23 -4,45 -13,66 -9,20 -21,38 -38,53l58 77zm47 -38l0 -318 87 0 0 244 108 0 0 74 -195 0z"/>
   </g>
  </g>
 </g>
</svg>
