<svg xmlns="http://www.w3.org/2000/svg" viewBox="0 0 411.65 283.58"><defs><style>.cls-1{fill:#8b00f6;}.cls-2{fill:#04bbff;}.cls-3{fill:#718fc8;}.cls-4{fill:#fefefe;}</style></defs><title>Asset 1</title><g id="Layer_2" data-name="Layer 2"><g id="Layer_1-2" data-name="Layer 1"><g id="Capa_1"><g id="_1214079669312" data-name=" 1214079669312"><polygon id="bar0" class="cls-1" points="0 129.97 411.65 129.97 411.65 179.46 0 179.46 0 129.97"/><path id="main-shape" class="cls-2" d="M141.82,0l61.4,35.46L238,55.53c14.6,8.76,23.44,22.08,26.61,39v94.34c-3.17,16.92-11.93,30.41-26.56,39.17l-34.83,20.13-39.49,22.82c-14.49,6.86-29,6.88-43.51.17l21.6,12.47-61.4-35.46-35-20.21h0c-14.6-8.76-23.21-22.17-26.36-39.07V94.51C22.2,77.61,31.52,64,46.15,55.25L80.42,35.46l39.94-23.07-1,.62a52.55,52.55,0,0,1,45.18.09ZM264.61,212.68,238.05,228h0Z"/><path class="cls-3" d="M236.35,252.2l1.7-1C237.51,251.55,237,251.89,236.35,252.2Z"/><path class="cls-3" d="M45.41,251.12l1.73,1C46.54,251.8,46,251.46,45.41,251.12Z"/><path class="cls-3" d="M236.35,252.23v0Z"/><path class="cls-4" d="M259.68,78.75l-1.78-1Z"/><path class="cls-4" d="M69.59,77.44l-1.76,1Z"/><path class="cls-4" d="M6.12,107.69v-35h10a43.14,43.14,0,0,1,8.16.54,10.42,10.42,0,0,1,4,1.81,9.5,9.5,0,0,1,2.92,3.66,11.68,11.68,0,0,1,1,4.91,10.44,10.44,0,0,1-2,6.63,10,10,0,0,1-5.84,3.37l9.55,14.12H23.13L15.08,94v13.72Zm9-18.46h1.79a7.61,7.61,0,0,0,4.5-1.07,3.81,3.81,0,0,0,1.42-3.29,4.63,4.63,0,0,0-1.33-3.74C20.58,80.39,19.11,80,17,80H15.08Zm58.42,1a18.39,18.39,0,0,1-1.39,7.08,17.89,17.89,0,0,1-4,5.9,19.55,19.55,0,0,1-6.12,4,19.21,19.21,0,0,1-14.35,0,19,19,0,0,1-6-4,18.21,18.21,0,0,1-4.09-20.07,18.17,18.17,0,0,1,4.09-5.9,18.55,18.55,0,0,1,6-4,19.29,19.29,0,0,1,14.38,0,18.29,18.29,0,0,1,6.09,4,17.82,17.82,0,0,1,4,5.9A18.05,18.05,0,0,1,73.5,90.26ZM54.77,100.54a8.47,8.47,0,0,0,6.57-2.91A10.76,10.76,0,0,0,64,90.26a10.57,10.57,0,0,0-2.64-7.35,8.78,8.78,0,0,0-13.09,0,11.82,11.82,0,0,0-.06,14.74A8.4,8.4,0,0,0,54.77,100.54ZM81,96.38a17.8,17.8,0,0,0,4.23,3.6,8.17,8.17,0,0,0,4.11,1.19,4.76,4.76,0,0,0,3.14-1,3.22,3.22,0,0,0,1.22-2.61,3.39,3.39,0,0,0-1-2.69c-.7-.63-2.32-1.28-4.81-2-3.43-.91-5.87-2.12-7.29-3.6a8.42,8.42,0,0,1-2.13-6.09A10.77,10.77,0,0,1,81.81,75a12.17,12.17,0,0,1,8.7-3.17,19.24,19.24,0,0,1,5.5.77A17.65,17.65,0,0,1,100.94,75l-3,6.86a12.12,12.12,0,0,0-3.35-2.1A8.5,8.5,0,0,0,91.22,79a4.5,4.5,0,0,0-2.78.82A2.53,2.53,0,0,0,87.36,82a2.63,2.63,0,0,0,.94,2.1,10.48,10.48,0,0,0,3.63,1.5l.45.11c3.88,1.08,6.44,2.21,7.68,3.49a8.35,8.35,0,0,1,1.87,3.09,11.22,11.22,0,0,1,.66,4,11.6,11.6,0,0,1-3.66,9c-2.44,2.27-5.7,3.4-9.75,3.4a17.48,17.48,0,0,1-6.69-1.24,18.67,18.67,0,0,1-5.76-3.92Zm36.17-1.76h9.5l-3.54-11.56a16,16,0,0,1-.46-1.71c-.19-.79-.45-1.78-.76-3-.2.85-.4,1.67-.6,2.47s-.39,1.5-.59,2.24ZM103.8,107.69l12.11-35h12l12.1,35h-9.49l-1.79-6.27H115.14l-1.81,6.27Zm39.52,0v-35h10a42.92,42.92,0,0,1,8.16.54,10.85,10.85,0,0,1,4,1.81,9.72,9.72,0,0,1,2.89,3.66,11.7,11.7,0,0,1,1,4.91,10.45,10.45,0,0,1-2,6.63,9.87,9.87,0,0,1-5.84,3.37l9.55,14.12H160.3l-8-13.72v13.72Zm9-18.46H154a7.52,7.52,0,0,0,4.51-1.07A3.81,3.81,0,0,0,160,84.87c0-1.76-.43-3-1.33-3.74S156.27,80,154.18,80h-1.9ZM175,107.69v-35h9.67v35Zm53.3-17.43a17.83,17.83,0,0,1-5.42,13,20,20,0,0,1-6.12,4,19.19,19.19,0,0,1-14.34,0,18.44,18.44,0,0,1-6-4,17.45,17.45,0,0,1-4.11-5.93,18.46,18.46,0,0,1,10.15-24,18.58,18.58,0,0,1,7.2-1.39,18.83,18.83,0,0,1,7.17,1.39,18.59,18.59,0,0,1,6.09,4,18.28,18.28,0,0,1,4,5.9A18,18,0,0,1,228.25,90.26Zm-18.71,10.28a8.55,8.55,0,0,0,6.57-2.91,10.74,10.74,0,0,0,2.58-7.37,10.61,10.61,0,0,0-2.63-7.35,8.79,8.79,0,0,0-13.1,0,11.87,11.87,0,0,0,0,14.74A8.36,8.36,0,0,0,209.54,100.54Z"/><path class="cls-4" d="M130.14,63V28h10a42.92,42.92,0,0,1,8.16.54,10.85,10.85,0,0,1,4,1.81A9.66,9.66,0,0,1,155.17,34a11.59,11.59,0,0,1,1,4.9,10.39,10.39,0,0,1-2,6.61,9.78,9.78,0,0,1-5.84,3.4L157.89,63H147.12l-8-13.72V63Zm9-18.48h1.75a7.53,7.53,0,0,0,4.51-1.05,3.82,3.82,0,0,0,1.42-3.28,4.6,4.6,0,0,0-1.33-3.75c-.88-.76-2.36-1.1-4.45-1.1h-1.9ZM161.55,63V28H183v7.71H170.84v6.06H182.3v7.49H170.84v5.92H183V63Zm37-13.06h9.49l-3.57-11.57c-.11-.37-.25-.93-.45-1.7s-.43-1.79-.74-3c-.2.88-.4,1.7-.59,2.46s-.43,1.53-.63,2.27ZM185.19,63l12.1-35h12l12.08,35h-9.5l-1.75-6.26H196.5L194.68,63Zm64-33.64V39.8a14.17,14.17,0,0,0-3.91-3.2,8.76,8.76,0,0,0-4.17-1,8.58,8.58,0,0,0-6.66,2.81,10.48,10.48,0,0,0-2.55,7.34,9.82,9.82,0,0,0,2.61,7,8.64,8.64,0,0,0,6.6,2.77,8.87,8.87,0,0,0,4.17-1,13.82,13.82,0,0,0,3.91-3.2V61.68a21.61,21.61,0,0,1-4.5,1.67,19,19,0,0,1-4.57.54,19.2,19.2,0,0,1-5.27-.68,14.28,14.28,0,0,1-4.45-2.07,17.32,17.32,0,0,1-6-6.63,19.15,19.15,0,0,1-2.07-9,19.49,19.49,0,0,1,1.3-7.31,18.11,18.11,0,0,1,3.94-6,15.9,15.9,0,0,1,5.62-3.83,18.09,18.09,0,0,1,6.91-1.27,19.48,19.48,0,0,1,4.57.53A22.24,22.24,0,0,1,249.19,29.37ZM259.63,63V36.26H251.8V28H277v8.28h-7.85V63Z"/><path id="bar1" class="cls-1" d="M61.4,245.23H222.24a6.86,6.86,0,0,1,6.86,6.83v19.3a6.88,6.88,0,0,1-6.86,6.86H61.4a6.88,6.88,0,0,1-6.83-6.86v-19.3A6.85,6.85,0,0,1,61.4,245.23Z"/></g></g></g></g></svg>
