<?xml version="1.0" encoding="UTF-8"?>
<!DOCTYPE svg PUBLIC "-//W3C//DTD SVG 1.1//EN" "http://www.w3.org/Graphics/SVG/1.1/DTD/svg11.dtd">
<!-- Creator: CorelDRAW X7 -->
<svg xmlns="http://www.w3.org/2000/svg" xml:space="preserve" width="210mm" height="297mm" version="1.1" style="shape-rendering:geometricPrecision; text-rendering:geometricPrecision; image-rendering:optimizeQuality; fill-rule:evenodd; clip-rule:evenodd"
viewBox="0 0 21000 29700"
 xmlns:xlink="http://www.w3.org/1999/xlink">
 <defs>
  <style type="text/css">
   <![CDATA[
    .fil3 {fill:#FEFEFE}
    .fil2 {fill:#718FC8}
    .fil1 {fill:#04BBFF}
    .fil0 {fill:#8B00F6}
   ]]>
  </style>
 </defs>
 <g id="Capa_x0020_1">
  <metadata id="CorelCorpID_0Corel-Layer"/>
  <g id="_1214079669312">
   <polygon class="fil0" id="bar0" points="3239,14433 17761,14433 17761,16179 3239,16179 "/>
   <path class="fil1" id="main-shape" d="M8242 9848l2166 1251 1227 708c515,309 827,779 939,1374l0 1669 0 1659c-112,597 -421,1073 -937,1382l-1229 710 -1393 805c-511,242 -1024,243 -1535,6l762 440 -2166 -1251 -1236 -713 1 0c-515,-309 -819,-782 -930,-1378l0 -1660 0 -1668c111,-596 440,-1076 956,-1385l1209 -698 1409 -814 -37 22c511,-238 1083,-239 1594,3l-800 -462zm4332 7503l-937 540 0 0 937 -540z"/>
   <path class="fil2" d="M11577 18745l60 -34c-19,11 -39,23 -60,34z"/>
   <path class="fil2" d="M4841 18707l61 35c-21,-11 -41,-23 -61,-35z"/>
   <path class="fil2" d="M11577 18746l0 -1c0,0 0,1 0,1z"/>
   <path class="fil3" d="M12400 12626l-63 -36c21,12 42,24 63,36z"/>
   <path class="fil3" d="M5694 12580l-62 36c20,-12 41,-24 62,-36z"/>
   <path class="fil0" id="bar1" d="M5405 18499l5674 0c133,0 242,108 242,241l0 681c0,133 -109,242 -242,242l-5674 0c-132,0 -241,-109 -241,-242l0 -681c0,-133 109,-241 241,-241z"/>
  </g>
 </g>
</svg>
