<?xml version="1.0" encoding="utf-8"?>
<!-- Generator: Adobe Illustrator 22.1.0, SVG Export Plug-In . SVG Version: 6.00 Build 0)  -->
<svg version="1.1" id="Layer_1" xmlns="http://www.w3.org/2000/svg" xmlns:xlink="http://www.w3.org/1999/xlink" x="0px" y="0px"
	 viewBox="0 0 480.7 283.5" style="enable-background:new 0 0 480.7 283.5;" xml:space="preserve">
<style type="text/css">
	.st0{fill:#8B00F6;}
	.st1{fill:#04BBFF;}
	.st2{fill:#718FC8;}
	.st3{fill:#FEFEFE;}
</style>
<g id="Capa_x0020_1">
	<g id="_1214079669312">
		<polygon id="bar0" class="st0" points="65.8,125.7 477.5,125.7 477.5,175.2 65.8,175.2 		"/>
		<path id="main-shape" class="st1" d="M207.6-4.3L269,31.2l34.8,20.1c14.6,8.8,23.4,22.1,26.6,38.9v47.3v47
			c-3.2,16.9-11.9,30.4-26.6,39.2L269,243.8l-39.5,22.8c-14.5,6.9-29,6.9-43.5,0.2l21.6,12.5l-61.4-35.5l-35-20.2h0
			c-14.6-8.8-23.2-22.2-26.4-39.1v-47.1V90.2C88,73.3,97.3,59.7,112,50.9l34.3-19.8l39.9-23.1l-1,0.6c14.5-6.7,30.7-6.8,45.2,0.1
			L207.6-4.3z M330.4,208.4l-26.6,15.3l0,0L330.4,208.4z"/>
		<path class="st2" d="M302.2,247.9l1.7-1C303.3,247.2,302.8,247.6,302.2,247.9z"/>
		<path class="st2" d="M111.2,246.8l1.7,1C112.4,247.5,111.8,247.2,111.2,246.8z"/>
		<path class="st2" d="M302.2,247.9L302.2,247.9L302.2,247.9z"/>
		<path class="st3" d="M325.5,74.4l-1.8-1C324.3,73.8,324.9,74.1,325.5,74.4z"/>
		<path class="st3" d="M135.4,73.1l-1.8,1C134.2,73.8,134.8,73.5,135.4,73.1z"/>
		<path class="st3" d="M71.9,103.4v-35h10c3.9,0,6.6,0.2,8.2,0.5c1.5,0.4,2.9,1,4,1.8c1.3,1,2.2,2.2,2.9,3.7c0.7,1.5,1,3.1,1,4.9
			c0,2.7-0.7,4.9-2,6.6c-1.3,1.7-3.3,2.8-5.8,3.4l9.6,14.1H88.9l-8.1-13.7v13.7H71.9z M80.9,84.9h1.8c2,0,3.5-0.4,4.5-1.1
			c0.9-0.7,1.4-1.8,1.4-3.3c0-1.8-0.5-3-1.3-3.7c-0.9-0.7-2.4-1.1-4.5-1.1h-1.9V84.9z M139.3,85.9c0,2.5-0.5,4.9-1.4,7.1
			c-0.9,2.2-2.3,4.2-4.1,5.9c-1.8,1.7-3.8,3-6.1,4c-2.3,0.9-4.7,1.4-7.1,1.4c-2.5,0-4.9-0.5-7.2-1.4c-2.3-1-4.3-2.3-6-4
			c-1.8-1.7-3.1-3.7-4.1-5.9c-0.9-2.2-1.4-4.6-1.4-7.1c0-2.5,0.5-4.9,1.4-7.1c0.9-2.2,2.3-4.2,4.1-5.9c1.8-1.7,3.8-3.1,6-4
			c2.3-0.9,4.7-1.4,7.2-1.4c2.5,0,4.9,0.5,7.2,1.4c2.3,0.9,4.3,2.3,6.1,4c1.8,1.7,3.1,3.7,4,5.9C138.8,81.1,139.3,83.4,139.3,85.9z
			 M120.6,96.2c2.7,0,4.8-1,6.6-2.9c1.7-2,2.6-4.4,2.6-7.4c0-2.9-0.9-5.4-2.6-7.3c-1.8-2-3.9-2.9-6.5-2.9c-2.6,0-4.8,1-6.5,2.9
			c-1.7,2-2.6,4.4-2.6,7.4c0,3,0.9,5.4,2.6,7.4C115.7,95.3,117.9,96.2,120.6,96.2z M146.8,92.1c1.4,1.6,2.8,2.8,4.2,3.6
			c1.4,0.8,2.7,1.2,4.1,1.2c1.3,0,2.3-0.3,3.1-1c0.8-0.7,1.2-1.6,1.2-2.6c0-1.2-0.3-2.1-1-2.7c-0.7-0.6-2.3-1.3-4.8-2
			c-3.4-0.9-5.9-2.1-7.3-3.6s-2.1-3.5-2.1-6.1c0-3.3,1.1-6.1,3.4-8.2c2.2-2.1,5.2-3.2,8.7-3.2c2,0,3.8,0.3,5.5,0.8
			c1.7,0.5,3.4,1.3,4.9,2.4l-3,6.9c-1.1-0.9-2.2-1.6-3.3-2.1c-1.1-0.5-2.2-0.7-3.4-0.7c-1.1,0-2.1,0.3-2.8,0.8
			c-0.7,0.5-1.1,1.3-1.1,2.1c0,0.9,0.3,1.6,0.9,2.1c0.6,0.5,1.8,1,3.6,1.5l0.5,0.1c3.9,1.1,6.4,2.2,7.7,3.5c0.8,0.9,1.4,1.9,1.9,3.1
			c0.5,1.2,0.7,2.6,0.7,4c0,3.7-1.2,6.7-3.7,9c-2.4,2.3-5.7,3.4-9.8,3.4c-2.5,0-4.7-0.4-6.7-1.2c-2-0.8-3.9-2.1-5.8-3.9L146.8,92.1z
			 M183,90.3h9.5L189,78.7c-0.1-0.4-0.3-0.9-0.5-1.7c-0.2-0.8-0.5-1.8-0.8-3c-0.2,0.9-0.4,1.7-0.6,2.5c-0.2,0.8-0.4,1.5-0.6,2.2
			L183,90.3z M169.6,103.4l12.1-35h12l12.1,35h-9.5l-1.8-6.3H181l-1.8,6.3H169.6z M209.1,103.4v-35h10c3.9,0,6.6,0.2,8.2,0.5
			c1.5,0.4,2.9,1,4,1.8c1.2,1,2.2,2.2,2.9,3.7c0.7,1.5,1,3.1,1,4.9c0,2.7-0.7,4.9-2,6.6c-1.3,1.7-3.3,2.8-5.8,3.4l9.6,14.1h-10.8
			l-8-13.7v13.7H209.1z M218.1,84.9h1.8c2.1,0,3.6-0.4,4.5-1.1c0.9-0.7,1.4-1.8,1.4-3.3c0-1.8-0.4-3-1.3-3.7
			c-0.9-0.7-2.4-1.1-4.5-1.1h-1.9V84.9z M240.8,103.4v-35h9.7v35H240.8z M294.1,85.9c0,2.5-0.5,4.9-1.4,7.1c-0.9,2.2-2.3,4.2-4,5.9
			c-1.8,1.7-3.9,3-6.1,4c-2.3,0.9-4.7,1.4-7.1,1.4c-2.5,0-4.9-0.5-7.2-1.4c-2.3-1-4.3-2.3-6-4c-1.8-1.7-3.2-3.7-4.1-5.9
			c-0.9-2.2-1.4-4.6-1.4-7.1c0-2.5,0.5-4.9,1.4-7.1c0.9-2.2,2.3-4.2,4.1-5.9c1.7-1.7,3.7-3.1,6-4c2.3-0.9,4.7-1.4,7.2-1.4
			c2.5,0,4.9,0.5,7.2,1.4s4.3,2.3,6.1,4c1.7,1.7,3.1,3.7,4,5.9S294.1,83.4,294.1,85.9z M275.4,96.2c2.6,0,4.8-1,6.6-2.9
			c1.7-2,2.6-4.4,2.6-7.4c0-2.9-0.9-5.4-2.6-7.3c-1.8-2-3.9-2.9-6.5-2.9c-2.6,0-4.8,1-6.6,2.9c-1.7,2-2.6,4.4-2.6,7.4
			c0,3,0.9,5.4,2.6,7.4C270.4,95.3,272.7,96.2,275.4,96.2z"/>
		<path class="st3" d="M196,58.7v-35h10c3.9,0,6.6,0.2,8.2,0.5c1.5,0.4,2.9,1,4,1.8c1.2,1,2.2,2.2,2.9,3.7c0.7,1.5,1,3.1,1,4.9
			c0,2.7-0.7,4.9-2,6.6c-1.3,1.7-3.3,2.8-5.8,3.4l9.6,14.1h-10.8l-8-13.7v13.7H196z M204.9,40.2h1.8c2.1,0,3.6-0.3,4.5-1
			c0.9-0.7,1.4-1.8,1.4-3.3c0-1.8-0.4-3-1.3-3.7c-0.9-0.8-2.4-1.1-4.5-1.1h-1.9V40.2z M227.4,58.7v-35h21.5v7.7h-12.2v6.1h11.5v7.5
			h-11.5v5.9h12.2v7.9H227.4z M264.4,45.6h9.5l-3.6-11.6c-0.1-0.4-0.3-0.9-0.5-1.7c-0.2-0.8-0.4-1.8-0.7-3c-0.2,0.9-0.4,1.7-0.6,2.5
			c-0.2,0.8-0.4,1.5-0.6,2.3L264.4,45.6z M251,58.7l12.1-35h12l12.1,35h-9.5l-1.8-6.3h-13.6l-1.8,6.3H251z M315,25.1v10.4
			c-1.3-1.4-2.6-2.5-3.9-3.2c-1.3-0.7-2.7-1-4.2-1c-2.7,0-5,0.9-6.7,2.8c-1.7,1.9-2.6,4.3-2.6,7.3c0,2.8,0.9,5.1,2.6,7
			c1.7,1.8,3.9,2.8,6.6,2.8c1.5,0,2.9-0.3,4.2-1c1.3-0.7,2.6-1.7,3.9-3.2v10.4c-1.5,0.7-3,1.3-4.5,1.7c-1.5,0.4-3,0.5-4.6,0.5
			c-1.9,0-3.7-0.2-5.3-0.7c-1.6-0.5-3.1-1.1-4.5-2.1c-2.6-1.8-4.6-4-6-6.6c-1.4-2.7-2.1-5.7-2.1-9c0-2.7,0.4-5.1,1.3-7.3
			c0.9-2.2,2.2-4.2,3.9-6c1.6-1.7,3.5-3,5.6-3.8c2.1-0.9,4.4-1.3,6.9-1.3c1.6,0,3.1,0.2,4.6,0.5C312,23.8,313.5,24.3,315,25.1z
			 M325.4,58.7V31.9h-7.8v-8.3h25.2v8.3H335v26.8H325.4z"/>
		<path id="bar1" class="st0" d="M127.2,240.9h160.8c3.8,0,6.9,3.1,6.9,6.8v19.3c0,3.8-3.1,6.9-6.9,6.9H127.2
			c-3.7,0-6.8-3.1-6.8-6.9v-19.3C120.4,244,123.5,240.9,127.2,240.9z"/>
	</g>
</g>
</svg>
