<?xml version="1.0" encoding="UTF-8"?>
<!DOCTYPE svg PUBLIC "-//W3C//DTD SVG 1.1//EN" "http://www.w3.org/Graphics/SVG/1.1/DTD/svg11.dtd">
<!-- Creator: CorelDRAW X7 -->
<svg xmlns="http://www.w3.org/2000/svg" xml:space="preserve" width="210mm" height="200mm" version="1.1" style="shape-rendering:geometricPrecision; text-rendering:geometricPrecision; image-rendering:optimizeQuality; fill-rule:evenodd; clip-rule:evenodd"
viewBox="0 0 21000 20000"
 xmlns:xlink="http://www.w3.org/1999/xlink">
 <defs>
  <style type="text/css">
   <![CDATA[
    .fil3 {fill:#FEFEFE}
    .fil2 {fill:#718FC8}
    .fil1 {fill:#04BBFF}
    .fil0 {fill:#8B00F6}
   ]]>
  </style>
 </defs>
 <g id="Capa_x0020_1">
  <metadata id="CorelCorpID_0Corel-Layer"/>
  <g id="_1214079669312">
   <polygon class="fil0" id="bar0" points="3239,14433 17761,14433 17761,16179 3239,16179 "/>
   <path class="fil1" id="main-shape" d="M8242 9848l2166 1251 1227 708c515,309 827,779 939,1374l0 1669 0 1659c-112,597 -421,1073 -937,1382l-1229 710 -1393 805c-511,242 -1024,243 -1535,6l762 440 -2166 -1251 -1236 -713 1 0c-515,-309 -819,-782 -930,-1378l0 -1660 0 -1668c111,-596 440,-1076 956,-1385l1209 -698 1409 -814 -37 22c511,-238 1083,-239 1594,3l-800 -462zm4332 7503l-937 540 0 0 937 -540z"/>
   <path class="fil2" d="M11577 18745l60 -34c-19,11 -39,23 -60,34z"/>
   <path class="fil2" d="M4841 18707l61 35c-21,-11 -41,-23 -61,-35z"/>
   <path class="fil2" d="M11577 18746l0 -1c0,0 0,1 0,1z"/>
   <path class="fil3" d="M12400 12626l-63 -36c21,12 42,24 63,36z"/>
   <path class="fil3" d="M5694 12580l-62 36c20,-12 41,-24 62,-36z"/>
   <path class="fil3" d="M3455 13647l0 -1236 353 0c137,0 234,7 288,19 54,13 101,34 140,64 45,34 79,77 103,129 24,53 35,110 35,173 0,96 -23,174 -70,234 -47,59 -116,99 -206,119l337 498 -380 0 -284 -484 0 484 -316 0zm316 -651l63 0c72,0 125,-13 159,-38 33,-24 50,-63 50,-116 0,-62 -16,-106 -47,-132 -31,-26 -83,-39 -157,-39l-68 0 0 325zm2061 36c0,89 -17,172 -49,250 -33,77 -80,147 -143,208 -63,61 -135,107 -216,141 -81,32 -165,49 -252,49 -88,0 -173,-17 -254,-49 -80,-34 -151,-80 -213,-141 -63,-61 -111,-131 -144,-209 -33,-78 -50,-161 -50,-249 0,-89 17,-172 50,-250 33,-77 81,-147 144,-208 62,-61 133,-108 213,-141 81,-33 166,-49 254,-49 88,0 172,16 253,49 82,33 153,80 215,141 62,60 109,130 142,208 33,78 50,161 50,250zm-661 363c94,0 171,-35 232,-103 61,-69 92,-156 92,-260 0,-104 -31,-190 -93,-259 -62,-70 -139,-104 -231,-104 -93,0 -170,34 -231,103 -61,69 -92,156 -92,260 0,106 30,192 90,260 61,69 138,103 233,103zm926 -147c51,57 100,99 149,127 48,28 97,42 145,42 45,0 82,-12 111,-36 29,-24 43,-55 43,-92 0,-41 -12,-73 -37,-95 -25,-22 -82,-45 -170,-69 -121,-32 -207,-75 -257,-127 -50,-52 -75,-124 -75,-215 0,-118 40,-215 119,-289 79,-75 182,-112 307,-112 69,0 133,9 194,27 61,19 119,46 174,84l-106 242c-38,-33 -77,-57 -118,-74 -40,-17 -79,-25 -119,-25 -40,0 -73,10 -98,29 -26,19 -38,45 -38,75 0,31 11,55 33,74 22,18 65,36 128,53l16 4c137,38 227,78 271,123 29,30 51,67 66,109 16,43 23,90 23,141 0,131 -43,237 -129,316 -86,80 -201,120 -344,120 -87,0 -165,-15 -236,-44 -70,-29 -138,-75 -203,-138l151 -250zm1276 -62l335 0 -125 -408c-4,-13 -10,-32 -16,-60 -7,-28 -16,-63 -27,-106 -7,30 -14,59 -21,87 -7,27 -14,53 -21,79l-125 408zm-472 461l427 -1236 422 0 427 1236 -335 0 -63 -221 -478 0 -64 221 -336 0zm1394 0l0 -1236 352 0c138,0 234,7 288,19 54,13 101,34 141,64 44,34 78,77 102,129 24,53 36,110 36,173 0,96 -24,174 -71,234 -47,59 -115,99 -206,119l337 498 -380 0 -283 -484 0 484 -316 0zm316 -651l62 0c73,0 126,-13 159,-38 33,-24 50,-63 50,-116 0,-62 -15,-106 -47,-132 -31,-26 -83,-39 -157,-39l-67 0 0 325zm800 651l0 -1236 341 0 0 1236 -341 0zm1880 -615c0,89 -16,172 -49,250 -32,77 -80,147 -142,208 -64,61 -136,107 -216,141 -81,32 -165,49 -252,49 -89,0 -174,-17 -254,-49 -81,-34 -152,-80 -213,-141 -64,-61 -112,-131 -145,-209 -33,-78 -49,-161 -49,-249 0,-89 16,-172 49,-250 33,-77 81,-147 145,-208 61,-61 132,-108 213,-141 80,-33 165,-49 254,-49 87,0 172,16 253,49 81,33 153,80 215,141 61,60 109,130 142,208 33,78 49,161 49,250zm-660 363c93,0 170,-35 232,-103 61,-69 91,-156 91,-260 0,-104 -31,-190 -93,-259 -62,-70 -138,-104 -230,-104 -93,0 -171,34 -232,103 -61,69 -91,156 -91,260 0,106 30,192 90,260 60,69 138,103 233,103z"/>
   <path class="fil3" d="M7830 12071l0 -1236 352 0c138,0 234,7 288,19 54,13 101,34 141,64 44,34 78,77 102,129 24,52 36,110 36,173 0,96 -24,173 -71,233 -47,60 -115,100 -206,120l337 498 -380 0 -283 -484 0 484 -316 0zm316 -652l62 0c73,0 126,-12 159,-37 33,-25 50,-63 50,-116 0,-62 -15,-106 -47,-132 -31,-27 -83,-39 -157,-39l-67 0 0 324zm792 652l0 -1236 757 0 0 272 -429 0 0 214 404 0 0 264 -404 0 0 209 429 0 0 277 -757 0zm1306 -461l335 0 -126 -408c-4,-13 -9,-33 -16,-60 -7,-28 -15,-63 -26,-107 -7,31 -14,60 -21,87 -7,28 -15,54 -22,80l-124 408zm-472 461l427 -1236 422 0 426 1236 -335 0 -62 -221 -479 0 -64 221 -335 0zm2258 -1187l0 368c-46,-51 -92,-89 -138,-113 -46,-24 -95,-36 -147,-36 -97,0 -175,33 -235,99 -60,66 -90,152 -90,259 0,99 31,181 92,246 61,65 138,98 233,98 52,0 101,-12 147,-36 46,-24 92,-61 138,-113l0 368c-53,26 -106,46 -159,59 -53,13 -106,19 -161,19 -67,0 -129,-8 -186,-24 -57,-16 -110,-40 -157,-73 -93,-62 -163,-140 -211,-234 -49,-94 -73,-200 -73,-317 0,-95 15,-180 46,-258 31,-77 77,-147 139,-210 58,-61 124,-105 198,-135 73,-30 155,-45 244,-45 55,0 108,6 161,19 53,13 106,33 159,59zm368 1187l0 -944 -276 0 0 -292 890 0 0 292 -277 0 0 944 -337 0z"/>
   <path class="fil0" id="bar1" d="M5405 18499l5674 0c133,0 242,108 242,241l0 681c0,133 -109,242 -242,242l-5674 0c-132,0 -241,-109 -241,-242l0 -681c0,-133 109,-241 241,-241z"/>
  </g>
 </g>
</svg>